<svg width="26"
    height="27"
    viewBox="0 0 26 27"
    fill="none"
    xmlns="http://www.w3.org/2000/svg">
    <path
        d="M13.1439 14.3504C13.7334 13.8001 14.6522 13.8367 15.196 14.4323C15.7398 15.0279 15.7027 15.9568 15.1132 16.5071C14.5237 17.0575 13.6049 17.0208 13.0611 16.4253C12.5174 15.8297 12.5544 14.9008 13.1439 14.3504Z"
        fill="#C6C6C6" />
    <path
        d="M15.9776 13.7026C16.5672 13.1523 17.4859 13.1889 18.0297 13.7845C18.5735 14.38 18.5365 15.309 17.9469 15.8593C17.3574 16.4096 16.4387 16.373 15.8949 15.7774C15.3511 15.1819 15.3882 14.253 15.9776 13.7026Z"
        fill="#C6C6C6" />
    <path
        d="M23.3405 13.8203C22.751 14.3707 21.8323 14.334 21.2884 13.7385C21.2039 13.6459 21.1334 13.5452 21.0769 13.4392C21.382 14.0146 21.2776 14.7474 20.7807 15.2113C20.1912 15.7617 19.2725 15.725 18.7287 15.1294C18.1849 14.5339 18.222 13.6049 18.8115 13.0546C19.401 12.5043 20.3197 12.5409 20.8635 13.1365C20.948 13.229 21.0185 13.3297 21.0751 13.4358C20.77 12.8603 20.8744 12.1275 21.3713 11.6637C21.8683 11.1997 22.5991 11.153 23.1421 11.5064C23.042 11.441 22.9483 11.3618 22.8637 11.2692C22.3199 10.6736 22.357 9.74472 22.9465 9.19436C23.536 8.644 24.4547 8.68065 24.9985 9.27622C25.5423 9.8718 25.5053 10.8007 24.9157 11.351C24.4188 11.815 23.6879 11.8617 23.1449 11.5083C23.245 11.5738 23.3387 11.6529 23.4233 11.7455C23.9671 12.3411 23.93 13.27 23.3405 13.8203Z"
        fill="#C6C6C6" />
    <path
        d="M22.9808 8.33492C22.437 7.73935 22.4741 6.81041 23.0636 6.26005C23.6531 5.70974 24.5718 5.74639 25.1156 6.34192C25.6594 6.93749 25.6224 7.86643 25.0329 8.41678C24.4433 8.96709 23.5247 8.93044 22.9808 8.33492Z"
        fill="#C6C6C6" />
    <path
        d="M12.5334 11.5162C13.0772 12.1118 13.0401 13.0407 12.4506 13.591C11.8611 14.1414 10.9423 14.1047 10.3986 13.5092C9.85476 12.9136 9.89182 11.9847 10.4813 11.4343C11.0708 10.884 11.9896 10.9206 12.5334 11.5162Z"
        fill="#C6C6C6" />
    <path
        d="M13.3979 8.7117C13.9417 9.30726 13.9046 10.2362 13.3151 10.7865C12.7256 11.3369 11.8069 11.3002 11.2631 10.7046C10.7193 10.1091 10.7563 9.18019 11.3458 8.62983C11.9354 8.07947 12.8541 8.11612 13.3979 8.7117Z"
        fill="#C6C6C6" />
    <path
        d="M18.3146 4.12155C17.7251 4.6719 16.8064 4.63525 16.2626 4.03968C16.178 3.94701 16.1075 3.84628 16.0509 3.74013C16.3561 4.3156 16.2518 5.04858 15.7548 5.5125C15.258 5.97638 14.5272 6.0232 13.9842 5.66983C14.0843 5.73529 14.1779 5.81431 14.2624 5.90693C14.8062 6.5025 14.7691 7.43144 14.1797 7.98175C13.5901 8.53211 12.6715 8.49546 12.1276 7.89989C11.5838 7.30437 11.6209 6.37538 12.2104 5.82507C12.7073 5.36119 13.438 5.31437 13.981 5.66774C13.881 5.60228 13.7873 5.52321 13.7028 5.43059C13.159 4.83502 13.196 3.90608 13.7856 3.35572C14.3751 2.80541 15.2938 2.84206 15.8376 3.43758C15.9222 3.53026 15.9927 3.63098 16.0493 3.73713C15.7441 3.16166 15.8484 2.42874 16.3454 1.96481C16.9349 1.41445 17.8536 1.45111 18.3974 2.04668C18.9412 2.6423 18.9041 3.57124 18.3146 4.12155Z"
        fill="#C6C6C6" />
    <path
        d="M21.6831 3.21686C21.6508 4.02713 20.9749 4.65807 20.1735 4.6261C19.3722 4.59413 18.7487 3.91136 18.7811 3.10108C18.8134 2.29081 19.4892 1.65987 20.2906 1.69184C21.092 1.72381 21.7154 2.40658 21.6831 3.21686Z"
        fill="#C6C6C6" />
    <path
        d="M21.6027 5.75051C21.0589 5.15494 21.0959 4.22605 21.6854 3.67569C22.275 3.12533 23.1937 3.16198 23.7375 3.75756C24.2813 4.35312 24.2442 5.28201 23.6547 5.83237C23.0652 6.38268 22.1465 6.34603 21.6027 5.75051Z"
        fill="#C6C6C6" />
    <path
        d="M7.93431 17.512L9.8079 15.7629C9.69829 15.2684 9.84481 14.7297 10.2399 14.3609C10.8293 13.8106 11.7481 13.8472 12.2919 14.4428C12.8357 15.0384 12.7986 15.9673 12.2091 16.5176C11.8141 16.8864 11.2713 16.9912 10.7925 16.8413L8.91898 18.5903C9.3024 19.4627 9.11755 20.5236 8.38568 21.2069L7.67431 21.8052C7.19668 19.6591 6.39916 19.019 4.36439 18.5903L5.31233 17.841C6.04421 17.1577 7.10478 17.056 7.93431 17.512Z"
        fill="#C6C6C6" />
    <path
        d="M3.64864 19.3942C2.00022 19.9138 1.98356 21.0103 0.581683 21.8052C1.72326 22.7887 5.31014 23.2238 6.72151 22.7595C8.13287 22.2952 5.29706 18.8745 3.64864 19.3942Z"
        fill="#C6C6C6" />
</svg>
