<svg width="11" height="17" viewBox="0 0 11 17" fill="none" xmlns="http://www.w3.org/2000/svg">
    <path
        d="M5.5 10.9932C6.96139 10.9932 8.04123 9.8181 8.04123 8.10186V2.89131C8.04123 1.17508 6.96139 0 5.5 0C4.03861 0 2.95877 1.17508 2.95877 2.89131V8.10186C2.95877 9.8181 4.03861 10.9932 5.5 10.9932ZM0 8.27967C0 11.4802 1.97971 13.668 4.8305 13.9618V15.5312H2.18848C1.80694 15.5312 1.49018 15.8558 1.49018 16.2656C1.49018 16.6676 1.80694 17 2.18848 17H8.81152C9.19306 17 9.50982 16.6676 9.50982 16.2656C9.50982 15.8558 9.19306 15.5312 8.81152 15.5312H6.1695V13.9618C9.02029 13.668 11 11.4802 11 8.27967V6.75671C11 6.34698 10.6976 6.03001 10.3161 6.03001C9.93456 6.03001 9.6178 6.34698 9.6178 6.75671V8.22556C9.6178 10.8618 7.95484 12.5935 5.5 12.5935C3.04516 12.5935 1.3822 10.8618 1.3822 8.22556V6.75671C1.3822 6.34698 1.07264 6.03001 0.6911 6.03001C0.309555 6.03001 0 6.34698 0 6.75671V8.27967Z"
        fill="#F4F4F4" />
</svg>
