<svg width="19" height="20" viewBox="0 0 19 20" fill="none" xmlns="http://www.w3.org/2000/svg">
    <path
        d="M7 13.0801C7.3252 13.0801 7.6416 13.0449 7.93164 12.9482C7.79102 12.4121 7.73828 11.8232 7.78223 11.2783C7.5625 11.4189 7.29883 11.4893 7 11.4893C5.96289 11.4893 5.30371 10.6982 5.30371 9.52051V3.9834C5.30371 2.81445 5.96289 2.01465 7 2.01465C8.03711 2.01465 8.69629 2.81445 8.69629 3.9834V8.60645C9.0918 7.88574 9.66309 7.26172 10.3574 6.82227V4.01855C10.3574 1.90039 8.96875 0.423828 7 0.423828C5.02246 0.423828 3.63379 1.90039 3.63379 4.01855V9.49414C3.63379 11.6035 5.02246 13.0801 7 13.0801ZM13.5391 16.1299C15.9912 16.1299 18.0566 14.0732 18.0566 11.6035C18.0566 9.125 16.0176 7.08594 13.5391 7.08594C11.0605 7.08594 9.0127 9.125 9.0127 11.6035C9.0127 14.0908 11.0605 16.1299 13.5391 16.1299ZM2.96582 19.751H11.0254C11.4824 19.751 11.8604 19.3818 11.8604 18.9336C11.8604 18.4766 11.4824 18.1074 11.0254 18.1074H7.7998V16.3057C8.50293 16.2441 9.14453 16.0859 9.74219 15.8486C9.29395 15.5059 8.90723 15.0752 8.6084 14.5654C8.10742 14.7148 7.58008 14.7852 7 14.7852C4.00293 14.7852 1.98145 12.8076 1.98145 9.81934V8.14062C1.98145 7.68359 1.60352 7.32324 1.14648 7.32324C0.689453 7.32324 0.320312 7.68359 0.320312 8.14062V9.88086C0.320312 13.4932 2.72852 15.9717 6.19141 16.3057V18.1074H2.96582C2.50879 18.1074 2.13086 18.4766 2.13086 18.9336C2.13086 19.3818 2.50879 19.751 2.96582 19.751ZM13.5391 14.4775C13.1699 14.4775 12.9326 14.2314 12.9326 13.8799V12.21H11.2715C10.9111 12.21 10.6738 11.9727 10.6738 11.6035C10.665 11.2432 10.9111 11.0059 11.2715 11.0059H12.9326V9.34473C12.9326 8.99316 13.1699 8.74707 13.5391 8.74707C13.8994 8.74707 14.1367 8.98438 14.1367 9.34473V11.0059H15.7979C16.1582 11.0059 16.3955 11.2432 16.3955 11.6035C16.3955 11.9727 16.1582 12.21 15.7979 12.21H14.1367V13.8799C14.1367 14.2314 13.8994 14.4775 13.5391 14.4775Z"
        fill="#1C1C1E" />
</svg>
