<svg width="25" height="21" viewBox="0 0 25 21" fill="none" xmlns="http://www.w3.org/2000/svg">
<path d="M24.0829 1.46355C24.0829 0.62204 23.3719 -0.0438551 22.5261 0.00251362C17.4952 0.280555 14.7837 1.89529 13.3837 3.23196C13.0969 3.50758 12.9351 3.88809 12.9351 4.28327V19.7745C12.9351 20.3794 13.6313 20.7233 14.1168 20.3574C15.6809 19.1695 18.3263 17.9548 22.6879 17.7402C23.4699 17.7011 24.0829 17.0572 24.0829 16.2791V1.46355H24.0829Z" fill="#C6C6C6"/>
<path d="M1.39256 17.7402C5.7541 17.9548 8.39947 19.1671 9.96366 20.3574C10.4466 20.7257 11.1454 20.3818 11.1454 19.7745V4.28327C11.1454 3.88566 10.9835 3.50517 10.6967 3.23196C9.29678 1.89529 6.58522 0.280561 1.55682 0.0025192C0.710988 -0.0462643 0 0.61963 0 1.46356V16.2815C0 17.0572 0.612921 17.7036 1.39256 17.7402Z" fill="#C6C6C6"/>
</svg>
