<svg width="22" height="24" viewBox="0 0 22 24" fill="none" xmlns="http://www.w3.org/2000/svg">
    <path fill-rule="evenodd" clip-rule="evenodd"
        d="M16.4415 0.882091V2.12396C20.1188 2.47423 22 4.46972 22 8.05735V17.9817C22 21.9727 19.6831 24 15.1237 24H6.87633C2.31691 24 0 21.9727 0 17.9817V8.05735C0 5.66913 0.828986 3.96023 2.52947 2.96249C2.79752 2.78285 3.14432 2.77031 3.42469 2.93011C3.70505 3.08992 3.87061 3.39451 3.85207 3.71638C3.83352 4.03824 3.63407 4.32186 3.3372 4.44849C2.21063 5.10658 1.67923 6.25292 1.67923 8.05735V8.37578H17.1855C17.6492 8.37578 18.0251 8.7512 18.0251 9.2143C18.0251 9.67741 17.6492 10.0528 17.1855 10.0528H1.67923V17.9817C1.67923 21.028 3.18841 22.2911 6.87633 22.3123H15.1237C18.7585 22.3123 20.3101 21.0174 20.3101 17.9711V8.04673C20.3101 5.39316 19.1304 4.10883 16.4415 3.80102V4.6077C16.3795 5.03767 16.0026 5.35157 15.5679 5.33518C15.1333 5.3188 14.7811 4.97743 14.7517 4.54402V0.807791C14.7599 0.583419 14.8579 0.371721 15.0237 0.220096C15.1895 0.0684707 15.4093 -0.0104137 15.6338 0.00110543C16.0967 0.029533 16.4539 0.419078 16.4415 0.882091ZM6.97759 5.15136C6.81783 5.30892 6.60153 5.39601 6.37701 5.39317C5.91747 5.38159 5.55269 5.00309 5.55866 4.54403V0.882101C5.60698 0.452513 5.97074 0.127747 6.40358 0.127747C6.83643 0.127747 7.20019 0.452513 7.24851 0.882101V2.03906H12.0524C12.5161 2.03906 12.892 2.41448 12.892 2.87759C12.892 3.34069 12.5161 3.71611 12.0524 3.71611H7.22726V4.55464C7.22727 4.77889 7.13736 4.99379 6.97759 5.15136ZM16.1228 12.7383C15.5358 12.7383 15.0599 13.2135 15.0599 13.7997C15.0599 14.3859 15.5358 14.8611 16.1228 14.8611C16.7097 14.8611 17.1856 14.3859 17.1856 13.7997C17.1856 13.5163 17.0721 13.2447 16.8705 13.0454C16.6689 12.846 16.3958 12.7354 16.1121 12.7383H16.1228ZM9.95841 13.7996C9.95841 13.2134 10.4342 12.7382 11.0212 12.7382C11.6082 12.7382 12.084 13.2134 12.084 13.7996C12.084 14.3859 11.6082 14.8611 11.0212 14.8611C10.4342 14.8611 9.95841 14.3859 9.95841 13.7996ZM5.93011 12.7383C5.34314 12.7383 4.8673 13.2135 4.8673 13.7997C4.8673 14.3859 5.34314 14.8611 5.93011 14.8611C6.51708 14.8611 6.99291 14.3859 6.99291 13.7997C6.99292 13.5163 6.87949 13.2447 6.67787 13.0454C6.47625 12.846 6.20319 12.7354 5.91948 12.7383H5.93011ZM15.0599 18.0984C15.0599 17.5122 15.5358 17.037 16.1228 17.037H16.1121C16.3958 17.0342 16.6689 17.1448 16.8705 17.3441C17.0721 17.5435 17.1856 17.8151 17.1856 18.0984C17.1856 18.6846 16.7097 19.1599 16.1228 19.1599C15.5358 19.1599 15.0599 18.6846 15.0599 18.0984ZM11.0212 17.037C10.4342 17.037 9.95841 17.5122 9.95841 18.0984C9.95841 18.6847 10.4342 19.1599 11.0212 19.1599C11.6082 19.1599 12.084 18.6847 12.084 18.0984C12.084 17.5122 11.6082 17.037 11.0212 17.037ZM4.8673 18.0984C4.8673 17.5122 5.34314 17.037 5.93011 17.037H5.91948C6.20319 17.0342 6.47625 17.1448 6.67787 17.3441C6.87949 17.5435 6.99292 17.8151 6.99291 18.0984C6.99291 18.6846 6.51708 19.1599 5.93011 19.1599C5.34314 19.1599 4.8673 18.6846 4.8673 18.0984Z"
        fill="#535353" />
</svg>
