<svg width="15" height="16" viewBox="0 0 15 16" fill="none" xmlns="http://www.w3.org/2000/svg">
    <path
        d="M5.41211 15.093C5.76904 15.093 6.05127 14.9353 6.25049 14.6282L14.0947 2.27661C14.2441 2.03589 14.3022 1.85327 14.3022 1.66235C14.3022 1.20581 14.0034 0.906982 13.5469 0.906982C13.2148 0.906982 13.0322 1.01489 12.833 1.33032L5.37891 13.2087L1.51074 8.14526C1.30322 7.85474 1.0957 7.73853 0.796875 7.73853C0.32373 7.73853 0 8.06226 0 8.5188C0 8.70972 0.0830078 8.92554 0.240723 9.12476L4.54883 14.6116C4.79785 14.9353 5.05518 15.093 5.41211 15.093Z"
        fill="#3D3D3D" />
</svg>
