<svg width="22" height="22" viewBox="0 0 22 22" fill="none" xmlns="http://www.w3.org/2000/svg">
    <path fill-rule="evenodd" clip-rule="evenodd"
        d="M11.0001 1.65002C5.84439 1.65002 1.65009 5.84432 1.65009 11C1.65009 16.1557 5.84439 20.35 11.0001 20.35C16.1558 20.35 20.3501 16.1557 20.3501 11C20.3501 5.84432 16.1558 1.65002 11.0001 1.65002ZM11 22C4.9346 22 0 17.0654 0 11C0 4.9346 4.9346 0 11 0C17.0654 0 22 4.9346 22 11C22 17.0654 17.0654 22 11 22Z"
        fill="#535353" />
    <path fill-rule="evenodd" clip-rule="evenodd"
        d="M10.9936 12.5103C10.5382 12.5103 10.1686 12.1407 10.1686 11.6853V6.82439C10.1686 6.36899 10.5382 5.99939 10.9936 5.99939C11.449 5.99939 11.8186 6.36899 11.8186 6.82439V11.6853C11.8186 12.1407 11.449 12.5103 10.9936 12.5103Z"
        fill="#535353" />
    <path fill-rule="evenodd" clip-rule="evenodd"
        d="M11.0042 16.2755C10.3959 16.2755 9.89868 15.7838 9.89868 15.1755C9.89868 14.5672 10.386 14.0755 10.9932 14.0755H11.0042C11.6125 14.0755 12.1042 14.5672 12.1042 15.1755C12.1042 15.7838 11.6125 16.2755 11.0042 16.2755Z"
        fill="#535353" />
</svg>
