<svg width="24" height="21" viewBox="0 0 24 21" fill="none" xmlns="http://www.w3.org/2000/svg">
    <path
        d="M14.6631 13.4424V15.2002H18.7852C21.5449 15.2002 23.2324 13.5654 23.2324 11.333C23.2324 9.46973 22.1689 7.9668 20.4199 7.27246C20.4287 3.2998 17.5635 0.43457 13.8809 0.43457C11.543 0.43457 9.78516 1.63867 8.68652 3.22949C6.58594 2.71094 4.10742 4.30176 4.01953 6.78027C2.00684 7.12305 0.767578 8.79297 0.767578 10.9199C0.767578 13.2842 2.56934 15.2002 5.49609 15.2002H9.30176V13.4424H5.49609C3.58008 13.4424 2.54297 12.2998 2.54297 10.8848C2.54297 9.24121 3.62402 8.08984 5.41699 8.08984C5.54883 8.08984 5.60156 8.01953 5.59277 7.89648C5.54004 5.27734 7.41211 4.43359 9.30176 4.9873C9.41602 5.01367 9.48633 4.99609 9.53906 4.89941C10.3828 3.36133 11.6924 2.18359 13.8721 2.18359C16.6318 2.18359 18.6006 4.37207 18.7324 6.92969C18.7588 7.39551 18.7236 7.91406 18.6885 8.33594C18.6709 8.45898 18.7236 8.5293 18.8379 8.54688C20.4463 8.85449 21.457 9.78613 21.457 11.2539C21.457 12.5371 20.5605 13.4424 18.75 13.4424H14.6631ZM11.9824 20.5791C12.2021 20.5791 12.3867 20.5 12.6064 20.2979L15.5596 17.5205C15.7178 17.3799 15.7969 17.2129 15.7969 17.002C15.7969 16.5889 15.4629 16.29 15.0586 16.29C14.8564 16.29 14.6543 16.3779 14.5049 16.5361L13.2832 17.7666L12.7207 18.417L12.8086 17.1162V9.5752C12.8086 9.14453 12.4395 8.7666 11.9824 8.7666C11.5342 8.7666 11.1562 9.14453 11.1562 9.5752V17.1162L11.2529 18.417L10.6816 17.7666L9.45996 16.5361C9.31055 16.3779 9.1084 16.29 8.90625 16.29C8.50195 16.29 8.17676 16.5889 8.17676 17.002C8.17676 17.2129 8.24707 17.3799 8.40527 17.5205L11.3584 20.2979C11.5781 20.5 11.7715 20.5791 11.9824 20.5791Z"
        fill="#1C1C1E" />
</svg>
