<svg width="20" height="21" viewBox="0 0 20 21" fill="none" xmlns="http://www.w3.org/2000/svg">
<path d="M9.99121 20.7509C14.9746 20.7509 19.0879 16.6376 19.0879 11.6542C19.0879 7.29485 15.9326 3.60344 11.8105 2.7509V1.45891C11.8105 0.790941 11.3096 0.597582 10.7646 0.99309L7.79395 3.09368C7.3457 3.41887 7.3457 3.91106 7.79395 4.22746L10.7559 6.33684C11.3008 6.73235 11.8105 6.55657 11.8105 5.87102V4.60539C14.957 5.4052 17.2598 8.24407 17.2598 11.6542C17.2598 15.6884 14.0254 18.9316 9.99121 18.9316C5.95703 18.9316 2.71387 15.6884 2.72266 11.6542C2.73145 9.30754 3.83008 7.25969 5.55273 5.93254C5.96582 5.57219 6.09766 5.05364 5.78125 4.62297C5.49121 4.20989 4.91992 4.13957 4.44531 4.52629C2.30957 6.1259 0.90332 8.81536 0.90332 11.6542C0.90332 16.6376 5.0166 20.7509 9.99121 20.7509Z" fill="#686868"/>
</svg>
