<svg width="25" height="22" viewBox="0 0 25 22" fill="none" xmlns="http://www.w3.org/2000/svg">
<path fill-rule="evenodd" clip-rule="evenodd" d="M4.83873 0H13.2698C16.3772 0 18.1075 1.79063 18.1075 4.85885V15.2505C18.1075 18.369 16.3772 20.1194 13.2698 20.1194H4.83873C1.78057 20.1194 0 18.369 0 15.2505V4.85885C0 1.79063 1.78057 0 4.83873 0ZM5.11034 4.68786V4.6778H8.11719C8.55076 4.6778 8.90285 5.02989 8.90285 5.46145C8.90285 5.90508 8.55076 6.25717 8.11719 6.25717H5.11034C4.67676 6.25717 4.32568 5.90508 4.32568 5.47251C4.32568 5.03995 4.67676 4.68786 5.11034 4.68786ZM5.11034 10.8042H12.9972C13.4297 10.8042 13.7818 10.4521 13.7818 10.0196C13.7818 9.58701 13.4297 9.23392 12.9972 9.23392H5.11034C4.67676 9.23392 4.32568 9.58701 4.32568 10.0196C4.32568 10.4521 4.67676 10.8042 5.11034 10.8042ZM5.11034 15.4015H12.9972C13.3985 15.3613 13.7013 15.0183 13.7013 14.6169C13.7013 14.2044 13.3985 13.8624 12.9972 13.8222H5.11034C4.80855 13.792 4.51681 13.9328 4.35586 14.1944C4.1949 14.4459 4.1949 14.7778 4.35586 15.0394C4.51681 15.2909 4.80855 15.4418 5.11034 15.4015Z" fill="#C6C6C6"/>
<path d="M24.2524 12.8532L18.3598 20.4735C18.0894 20.8195 17.6909 21.0142 17.2639 21.0214L14.9154 21.0502C14.7873 21.0502 14.6805 20.9637 14.652 20.8411L14.1183 18.5269C14.0258 18.1016 14.1183 17.6618 14.3887 17.323L18.5662 11.916C18.6374 11.8295 18.7655 11.8158 18.8509 11.88L20.6087 13.2786C20.7225 13.3723 20.8791 13.4228 21.0428 13.4011C21.3915 13.3579 21.6263 13.0407 21.5908 12.7018C21.5694 12.5288 21.484 12.3846 21.3702 12.2765C21.3346 12.2477 19.6622 10.9067 19.6622 10.9067C19.5554 10.8202 19.5341 10.6616 19.6195 10.5542L20.2813 9.69557C20.8933 8.90976 21.9608 8.83767 22.8219 9.52255L23.8112 10.3084C24.2168 10.6256 24.4872 11.0437 24.5798 11.4835C24.6865 11.9672 24.5726 12.4423 24.2524 12.8532Z" fill="#C6C6C6"/>
<path fill-rule="evenodd" clip-rule="evenodd" d="M20.582 9.92981C20.5819 9.93005 20.5822 9.92957 20.582 9.92981L19.998 10.6875L20.7413 11.2835C21.1629 11.6216 21.5913 11.9652 21.6102 11.9804L21.6218 11.9898L21.6327 12.0002C21.8 12.1591 21.9353 12.381 21.9691 12.6552L21.9699 12.6621C22.026 13.1962 21.6558 13.7084 21.0911 13.7793C20.8211 13.8145 20.5613 13.732 20.3692 13.5752L18.7571 12.2925L14.6867 17.5608C14.4925 17.8041 14.4215 18.1243 14.4903 18.4438L15.0033 20.668L17.2574 20.6403C17.2577 20.6403 17.2572 20.6403 17.2574 20.6403C17.5694 20.6348 17.8599 20.4938 18.059 20.2395C18.0592 20.2393 18.0588 20.2397 18.059 20.2395L23.9509 12.6201L23.9518 12.619C24.2066 12.2921 24.2884 11.9318 24.2076 11.5656L24.2068 11.562C24.135 11.2207 23.9203 10.8776 23.5764 10.6086L23.5741 10.6068L22.5849 9.82102C21.8606 9.24497 21.0419 9.34011 20.582 9.92981ZM19.4238 11.2041L19.4222 11.2029C19.1626 10.9925 19.0991 10.5994 19.319 10.3198L19.9795 9.46291L19.9806 9.4614C20.7449 8.48018 22.0614 8.43081 23.0591 9.22413C23.0591 9.22418 23.059 9.22409 23.0591 9.22413L24.046 10.0081C24.0464 10.0085 24.0468 10.0088 24.0472 10.0091C24.5134 10.374 24.8389 10.8661 24.9524 11.4032C25.0843 12.0036 24.9385 12.5927 24.5535 13.087C24.5534 13.0872 24.5537 13.0868 24.5535 13.087L18.6614 20.7066L18.6602 20.7082C18.3185 21.1453 17.8118 21.3933 17.2703 21.4025L17.2686 21.4025L14.9154 21.4314C14.6083 21.4314 14.349 21.2209 14.2808 20.9274L13.7459 18.608C13.6307 18.0785 13.7442 17.5213 14.0889 17.0878L18.2717 11.6738C18.4721 11.4303 18.8309 11.3882 19.0798 11.5753L19.0883 11.5816L20.851 12.9843C20.886 13.0131 20.9374 13.0306 20.9929 13.0233L20.9959 13.0229C21.1268 13.0067 21.2252 12.8867 21.2121 12.7451C21.203 12.6784 21.1709 12.6164 21.1172 12.5622L19.4238 11.2041Z" fill="#C6C6C6"/>
<path fill-rule="evenodd" clip-rule="evenodd" d="M20.5329 9.89061C20.5327 9.8908 20.5326 9.891 20.5324 9.89119L19.9105 10.698L20.702 11.3326C21.1237 11.6708 21.5519 12.0142 21.5706 12.0294L21.5803 12.0372L21.5894 12.0458C21.7479 12.1964 21.8749 12.4055 21.9067 12.663L21.9074 12.6687C21.9601 13.1706 21.6123 13.6506 21.0833 13.7169C20.8308 13.7499 20.588 13.6727 20.4088 13.5262L18.7464 12.2035L14.6376 17.5216C14.4308 17.7807 14.3562 18.1206 14.4289 18.4576L14.9534 20.7316L17.2586 20.7033C17.2588 20.7033 17.2591 20.7033 17.2593 20.7033C17.5902 20.6974 17.8978 20.5476 18.1087 20.2782C18.1088 20.278 18.109 20.2778 18.1091 20.2776L24.0007 12.6587L24.0015 12.6577C24.267 12.3169 24.3542 11.9377 24.2691 11.5521L24.2684 11.5491C24.1932 11.1916 23.9693 10.836 23.6152 10.5591L23.6133 10.5576L22.6241 9.77181C21.8772 9.17777 21.0179 9.26852 20.5329 9.89061ZM23.02 9.27346C22.0449 8.49804 20.7694 8.55116 20.0303 9.50012L20.0293 9.50138L19.3687 10.3585C19.171 10.6097 19.2275 10.9641 19.4619 11.154L19.4632 11.1551L21.1593 12.5153C21.223 12.5787 21.2636 12.6541 21.2746 12.738C21.2915 12.9122 21.1705 13.0647 21.0037 13.0854L21.0012 13.0857C20.9278 13.0954 20.859 13.0725 20.811 13.033L19.0491 11.6311L19.0421 11.6257C18.8201 11.4589 18.4995 11.4963 18.3205 11.714L18.3174 11.7177L14.1385 17.1266C13.806 17.5445 13.696 18.0824 13.8074 18.5947L14.342 20.9127C14.4037 21.178 14.6379 21.3685 14.9154 21.3685L17.2678 21.3396L17.2693 21.3396C17.7919 21.3308 18.2807 21.0916 18.6106 20.6695L18.6116 20.6682L24.5035 13.0489C24.5034 13.0491 24.5036 13.0488 24.5035 13.0489C24.8778 12.5683 25.0187 11.9977 24.8909 11.4164C24.7808 10.8954 24.4644 10.4156 24.0082 10.0585C24.0079 10.0583 24.0076 10.058 24.0073 10.0578L23.02 9.27346C23.0199 9.27342 23.02 9.2735 23.02 9.27346Z" fill="#C6C6C6"/>
</svg>
