<svg width="26" height="13" viewBox="0 0 26 13" fill="none" xmlns="http://www.w3.org/2000/svg">
<path d="M19.1172 12.3237C22.5298 12.3237 25.1069 9.81738 25.1069 6.48975C25.1069 3.16211 22.5581 0.684082 19.1455 0.684082C16.8516 0.684082 15.0391 1.80273 13.0142 4.43652C10.8618 1.70361 9.12012 0.641602 6.88281 0.641602C3.47021 0.641602 0.893066 3.14795 0.893066 6.47559C0.893066 9.80322 3.42773 12.2812 6.85449 12.2812C9.12012 12.2812 10.9185 11.1909 12.9858 8.52881C15.1807 11.2759 16.8799 12.3237 19.1172 12.3237ZM6.96777 3.31787C8.41211 3.31787 9.50244 4.09668 11.3999 6.47559C9.71484 8.76953 8.48291 9.66162 6.96777 9.66162C5.11279 9.66162 3.7251 8.30225 3.7251 6.48975C3.7251 4.66309 5.11279 3.31787 6.96777 3.31787ZM22.2607 6.46143C22.2607 8.28809 20.873 9.64746 19.0181 9.64746C17.5879 9.64746 16.5117 8.88281 14.6001 6.48975C16.271 4.1958 17.5171 3.30371 19.0322 3.30371C20.8872 3.30371 22.2607 4.64893 22.2607 6.46143Z" fill="#6C6C6C"/>
</svg>
