<svg width="22" height="22" viewBox="0 0 22 22" fill="none" xmlns="http://www.w3.org/2000/svg">
    <path
        d="M10.9947 22C17.045 22 22 17.045 22 10.9947C22 4.95505 17.0556 0 11.0053 0C10.3461 0 9.9739 0.393427 9.9739 1.03142V4.94442C9.9739 5.48671 10.3567 5.91203 10.899 5.91203C11.4413 5.91203 11.8241 5.48671 11.8241 4.94442V2.2117C16.3219 2.62639 19.7883 6.39053 19.7883 10.9947C19.7883 15.8647 15.8859 19.7989 10.9947 19.7989C6.11407 19.7989 2.19043 15.8647 2.20106 10.9947C2.2117 8.89995 2.94538 6.95408 4.17883 5.45481C4.58289 4.90189 4.64669 4.31706 4.18946 3.85984C3.73224 3.40261 2.99855 3.44514 2.52006 4.0725C0.956984 5.9652 0 8.37893 0 10.9947C0 17.045 4.95505 22 10.9947 22ZM12.7066 12.6322C13.5785 11.7071 13.3978 10.4524 12.3557 9.73997L6.95408 6.029C6.31609 5.60367 5.69937 6.23103 6.1247 6.86902L9.83567 12.26C10.5481 13.3127 11.8028 13.5041 12.7066 12.6322Z"
        fill="#525252" />
</svg>
