<svg width="19" height="21" viewBox="0 0 19 21" fill="none" xmlns="http://www.w3.org/2000/svg">
    <path fill-rule="evenodd" clip-rule="evenodd"
        d="M5.52974 11.9319C5.89381 12.3472 5.85228 12.979 5.43698 13.343L2.51699 15.9028L5.43698 18.4626C5.85228 18.8267 5.89381 19.4585 5.52974 19.8738C5.16568 20.2891 4.53387 20.3306 4.11858 19.9665L0.340798 16.6548C0.124202 16.4649 0 16.1909 0 15.9028C0 15.6148 0.124202 15.3407 0.340798 15.1509L4.11858 11.8391C4.53387 11.475 5.16568 11.5166 5.52974 11.9319Z"
        fill="#535353" />
    <path fill-rule="evenodd" clip-rule="evenodd"
        d="M18 9.93506C18.5523 9.93506 19 10.3828 19 10.9351V12.5909C19 13.7801 18.46 14.8893 17.5527 15.6847C16.6497 16.4763 15.45 16.9027 14.2222 16.9027H1C0.447715 16.9027 0 16.455 0 15.9027C0 15.3504 0.447715 14.9027 1 14.9027H14.2222C14.9983 14.9027 15.7204 14.6312 16.2343 14.1807C16.744 13.7339 17 13.1584 17 12.5909V10.9351C17 10.3828 17.4477 9.93506 18 9.93506Z"
        fill="#535353" />
    <path fill-rule="evenodd" clip-rule="evenodd"
        d="M13.47 0.340812C13.834 -0.0744878 14.4658 -0.11602 14.8811 0.248047L18.6589 3.55979C18.8755 3.74967 18.9997 4.02372 18.9997 4.31176C18.9997 4.5998 18.8755 4.87385 18.6589 5.06372L14.8811 8.37546C14.4658 8.73953 13.834 8.698 13.47 8.2827C13.1059 7.8674 13.1474 7.2356 13.5627 6.87153L16.4827 4.31176L13.5627 1.75198C13.1474 1.38791 13.1059 0.756111 13.47 0.340812Z"
        fill="#535353" />
    <path fill-rule="evenodd" clip-rule="evenodd"
        d="M4.77778 5.31128C4.00166 5.31128 3.27957 5.58274 2.76569 6.03323C2.25602 6.48003 2 7.05558 2 7.62302V9.27889C2 9.83118 1.55228 10.2789 1 10.2789C0.447715 10.2789 0 9.83118 0 9.27889V7.62302C0 6.4338 0.540013 5.32465 1.44728 4.5293C2.35034 3.73765 3.55004 3.31128 4.77778 3.31128H18C18.5523 3.31128 19 3.75899 19 4.31128C19 4.86356 18.5523 5.31128 18 5.31128H4.77778Z"
        fill="#535353" />
</svg>
