<svg width="15" height="16" viewBox="0 0 15 16" fill="none" xmlns="http://www.w3.org/2000/svg">
    <path
        d="M12.8301 7.43069L12.8305 7.43087C13.2103 7.65053 13.3733 7.7836 13.4462 7.86881C13.4742 7.90167 13.4799 7.91754 13.4812 7.92119L13.4813 7.92129C13.4828 7.92567 13.4894 7.94478 13.4894 7.99527C13.4894 8.04568 13.4829 8.06496 13.4811 8.06974C13.4797 8.07371 13.4738 8.09038 13.4446 8.12474C13.3703 8.21219 13.2062 8.34709 12.8273 8.57095L1.81268 14.9379C1.81246 14.938 1.81223 14.9382 1.81201 14.9383C1.44897 15.147 1.28606 15.2 1.13408 15.2C1.00766 15.2 0.956198 15.1603 0.921619 15.1185C0.873432 15.0601 0.8 14.9166 0.8 14.6391V1.35145C0.8 1.07409 0.873304 0.934757 0.919108 0.879846C0.951551 0.840954 1.00286 0.8 1.13408 0.8C1.29474 0.8 1.46402 0.852256 1.81171 1.05209C1.81203 1.05228 1.81236 1.05246 1.81268 1.05265L12.8301 7.43069Z"
        stroke="black" stroke-width="1.6" />
</svg>
