<svg width="20" height="19" viewBox="0 0 20 19" fill="none" xmlns="http://www.w3.org/2000/svg">
    <path
        d="M9.99121 18.7422C14.9746 18.7422 19.0879 14.6289 19.0879 9.6543C19.0879 4.67969 14.9658 0.566406 9.98242 0.566406C5.00781 0.566406 0.90332 4.67969 0.90332 9.6543C0.90332 14.6289 5.0166 18.7422 9.99121 18.7422ZM9.99121 16.9316C5.95703 16.9316 2.73145 13.6885 2.73145 9.6543C2.73145 5.62012 5.95703 2.38574 9.98242 2.38574C14.0166 2.38574 17.2598 5.62012 17.2686 9.6543C17.2773 13.6885 14.0254 16.9316 9.99121 16.9316ZM4.60352 9.32031C4.60352 9.70703 4.90234 10.0059 5.28906 10.0059C5.66699 10.0059 5.95703 9.70703 5.95703 9.32031V9.02148C5.95703 8.30957 6.44043 7.85254 7.1875 7.85254H10.6416V8.74023C10.6416 9.08301 10.8613 9.29395 11.1953 9.29395C11.3447 9.29395 11.4854 9.25 11.6084 9.14453L13.4541 7.61523C13.7266 7.38672 13.7266 7.00879 13.4541 6.78027L11.6172 5.24219C11.5029 5.14551 11.3535 5.09277 11.1953 5.09277C10.8701 5.09277 10.6416 5.3125 10.6416 5.65527V6.5166H7.29297C5.64941 6.5166 4.60352 7.44824 4.60352 8.91602V9.32031ZM9.34082 10.6211C9.34082 10.2783 9.12988 10.0674 8.78711 10.0674C8.64648 10.0674 8.50586 10.1113 8.38281 10.2168L6.53711 11.7461C6.25586 11.9746 6.24707 12.3525 6.53711 12.5811L8.37402 14.1191C8.48828 14.2158 8.6377 14.2773 8.78711 14.2773C9.12109 14.2773 9.34082 14.0488 9.34082 13.7061V12.8447H12.6895C14.3418 12.8447 15.3877 11.9043 15.3877 10.4365V10.0322C15.3877 9.64551 15.0801 9.34668 14.7021 9.34668C14.3242 9.34668 14.0254 9.64551 14.0254 10.0322V10.3311C14.0254 11.0518 13.542 11.5088 12.7949 11.5088H9.34082V10.6211Z"
        fill="#1C1C1E" />
</svg>
