<svg width="28" height="28" viewBox="0 0 28 28" fill="none" xmlns="http://www.w3.org/2000/svg">
    <path
        d="M21.6201 19.8066C21.9014 20.0879 22.3496 20.0791 22.6133 19.8066C22.8857 19.5342 22.8857 19.0947 22.6133 18.8223L7.27637 3.49414C7.00391 3.22168 6.55566 3.22168 6.2832 3.49414C6.01074 3.75781 6.01953 4.22363 6.2832 4.4873L21.6201 19.8066ZM22.165 16.7393C22.3057 16.5283 22.3672 16.2559 22.3672 15.9043V7.15039C22.3672 6.57031 21.9189 6.20996 21.3213 6.20996C20.8203 6.20996 20.0293 6.54395 18.623 6.54395C15.626 6.54395 13.4375 4.98828 10.291 4.94434L12.2158 6.86914C14.3604 7.25586 16.1533 8.20508 18.5879 8.20508C19.4316 8.20508 20.1436 8.1084 20.6797 7.95898V15.2451L22.165 16.7393ZM7.35547 22.373C7.80371 22.373 8.17285 22.0127 8.17285 21.5557V16.748C8.41895 16.6602 9.15723 16.3965 10.2734 16.3965C13.3057 16.3965 15.3271 17.8203 18.2275 17.9785L16.1533 15.9043C14.2637 15.5352 12.6025 14.7354 10.3086 14.7354C9.45605 14.7354 8.68262 14.832 8.2168 15.0078V8.04688L6.62598 6.45605C6.56445 6.5791 6.5293 6.72852 6.5293 6.93945V21.5557C6.5293 22.0039 6.90723 22.373 7.35547 22.373Z"
        fill="#535353" />
</svg>
