<svg width="29" height="28" viewBox="0 0 29 28" fill="none" xmlns="http://www.w3.org/2000/svg">
<path d="M19.0088 15.7988V6.97461C19.0088 6.31543 18.5166 5.78809 17.8486 5.78809C17.3916 5.78809 17.0752 5.99023 16.583 6.43848L12.918 9.69043L14.043 10.8242L17.0576 8.08203C17.1016 8.04688 17.1455 8.02051 17.207 8.02051C17.2686 8.02051 17.3213 8.06445 17.3213 8.14355V14.1113L19.0088 15.7988ZM21.9355 22.3818C22.208 22.6455 22.6562 22.6543 22.9199 22.3818C23.1924 22.1006 23.2012 21.6611 22.9199 21.3887L7.52148 5.99902C7.24902 5.72656 6.80078 5.71777 6.52832 5.99902C6.25586 6.2627 6.25586 6.71973 6.52832 6.9834L21.9355 22.3818ZM10.0439 17.416H12.54C12.6104 17.416 12.6807 17.4336 12.7334 17.4863L16.5918 20.9316C17.0488 21.3447 17.4004 21.5381 17.8662 21.5381C18.2793 21.5381 18.6309 21.3271 18.8418 20.9844L17.3564 19.5078L13.5244 16.0449C13.3398 15.8779 13.2168 15.8428 12.9795 15.8428H10.2021C9.91211 15.8428 9.77148 15.7021 9.77148 15.4121V11.9141L8.4707 10.6221C8.22461 10.9297 8.08398 11.3867 8.08398 11.9844V15.3594C8.08398 16.7393 8.75195 17.416 10.0439 17.416Z" fill="#1C1C1E"/>
</svg>
