<svg width="20" height="20" viewBox="0 0 20 20" fill="none" xmlns="http://www.w3.org/2000/svg">
    <path
        d="M15.1529 12.0558V1.97102C15.1529 1.21767 14.5904 0.61499 13.827 0.61499C13.3047 0.61499 12.9431 0.846017 12.3806 1.35829L8.192 5.07481L9.47771 6.37057L12.923 3.23664C12.9732 3.19646 13.0235 3.16633 13.0938 3.16633C13.1641 3.16633 13.2244 3.21655 13.2244 3.30695V10.1273L15.1529 12.0558ZM18.4978 19.5793C18.8092 19.8806 19.3215 19.8907 19.6228 19.5793C19.9342 19.2578 19.9442 18.7556 19.6228 18.4442L2.02459 0.856062C1.7132 0.544678 1.20093 0.534633 0.889544 0.856062C0.57816 1.1574 0.57816 1.67972 0.889544 1.98106L18.4978 19.5793ZM4.9074 13.9041H7.76008C7.84044 13.9041 7.92079 13.9241 7.98106 13.9844L12.3907 17.9219C12.913 18.394 13.3148 18.615 13.8471 18.615C14.3192 18.615 14.721 18.3739 14.9621 17.9822L13.2645 16.2947L8.88508 12.3371C8.67414 12.1462 8.53352 12.1061 8.26231 12.1061H5.0882C4.75673 12.1061 4.59602 11.9453 4.59602 11.6139V7.61611L3.10941 6.13954C2.82816 6.49111 2.66745 7.01343 2.66745 7.69646V11.5536C2.66745 13.1306 3.43084 13.9041 4.9074 13.9041Z"
        fill="#686868" />
</svg>
