<svg width="22" height="21" viewBox="0 0 22 21" fill="none" xmlns="http://www.w3.org/2000/svg">
<path d="M11 3.73926C11.4307 3.73047 11.7822 3.37012 11.7822 2.88672V0.856445C11.7822 0.373047 11.4307 0.0126953 11 0.0126953C10.5693 0.0126953 10.2178 0.373047 10.2178 0.856445V2.88672C10.2178 3.37012 10.5693 3.74805 11 3.73926ZM15.5352 5.62012C15.8428 5.91895 16.3525 5.91016 16.6953 5.57617L18.1279 4.13477C18.4795 3.79199 18.4707 3.29102 18.1631 2.9834C17.873 2.67578 17.3633 2.67578 17.0205 3.02734L15.5791 4.45996C15.2363 4.80273 15.2275 5.32129 15.5352 5.62012ZM6.45605 5.62012C6.76367 5.3125 6.75488 4.80273 6.4209 4.45996L4.97949 3.02734C4.63672 2.67578 4.13574 2.68457 3.82812 2.9834C3.52051 3.29102 3.52051 3.79199 3.86328 4.13477L5.30469 5.57617C5.64746 5.91016 6.15723 5.92773 6.45605 5.62012ZM15.7637 10.1377C15.7637 7.52734 13.6104 5.35645 11 5.35645C8.38965 5.35645 6.22754 7.52734 6.22754 10.1377C6.22754 10.7178 6.35059 11.2803 6.55273 11.7812H15.4473C15.6494 11.2803 15.7637 10.7178 15.7637 10.1377ZM1.70117 10.6738H3.73145C4.21484 10.6738 4.59277 10.3223 4.58398 9.8916C4.5752 9.46094 4.21484 9.10938 3.73145 9.10938H1.70117C1.21777 9.10938 0.857422 9.46094 0.857422 9.8916C0.857422 10.3223 1.22656 10.6738 1.70117 10.6738ZM18.2686 10.6738H20.2988C20.7822 10.6738 21.1426 10.3223 21.1426 9.8916C21.1426 9.46094 20.7822 9.10938 20.2988 9.10938H18.2686C17.7852 9.10938 17.4072 9.46094 17.416 9.8916C17.4248 10.3223 17.7852 10.6738 18.2686 10.6738ZM2.78223 14.0752H20.5361C20.8789 14.0752 21.1426 13.8203 21.1426 13.4775C21.1426 13.1436 20.8789 12.8887 20.5361 12.8887H2.78223C2.44824 12.8887 2.18457 13.1436 2.18457 13.4775C2.18457 13.8203 2.44824 14.0752 2.78223 14.0752ZM1.46387 17.4502H19.209C19.5518 17.4502 19.8154 17.1953 19.8154 16.8525C19.8154 16.5186 19.5518 16.2637 19.209 16.2637H1.46387C1.12109 16.2637 0.857422 16.5186 0.857422 16.8525C0.857422 17.1953 1.12109 17.4502 1.46387 17.4502ZM2.78223 20.8252H20.5361C20.8789 20.8252 21.1426 20.5703 21.1426 20.2275C21.1426 19.8936 20.8789 19.6387 20.5361 19.6387H2.78223C2.44824 19.6387 2.18457 19.8936 2.18457 20.2275C2.18457 20.5703 2.44824 20.8252 2.78223 20.8252Z" fill="#1C1C1E"/>
</svg>
