<svg width="10" height="6" viewBox="0 0 10 6" fill="none" xmlns="http://www.w3.org/2000/svg">
<path fill-rule="evenodd" clip-rule="evenodd" d="M-2.31717e-07 5.30108C-2.23915e-07 5.12259 0.0646847 4.94359 0.194056 4.80722L4.56034 0.204562C4.68495 0.0737024 4.85333 -2.24968e-07 5.02931 -2.17276e-07C5.20529 -2.09583e-07 5.37367 0.0737025 5.49828 0.204562L9.80559 4.74555C10.0648 5.0188 10.0648 5.46102 9.80559 5.73377C9.54637 6.00702 9.12639 6.00702 8.86812 5.73377L5.02931 1.68714L1.132 5.79544C0.872781 6.06819 0.452799 6.06819 0.194056 5.79544C0.0646846 5.65906 -2.39541e-07 5.48007 -2.31717e-07 5.30108Z" fill="#D8D8D8"/>
</svg>
