<svg width="17" height="16" viewBox="0 0 17 16" fill="none" xmlns="http://www.w3.org/2000/svg">
    <path
        d="M3.26171 15.8616C3.57556 16.1029 3.97361 16.02 4.44821 15.6807L8.49764 12.7481L12.5547 15.6807C13.0293 16.02 13.4197 16.1029 13.7412 15.8616C14.0551 15.6279 14.124 15.2435 13.9326 14.6931L12.3327 10.004L16.4204 7.10909C16.895 6.77738 17.0864 6.4306 16.9639 6.05366C16.8414 5.69179 16.4817 5.51086 15.8922 5.5184L10.8783 5.54856L9.35498 0.836807C9.17127 0.278936 8.89569 0 8.49764 0C8.10724 0 7.83167 0.278936 7.64795 0.836807L6.12463 5.54856L1.11069 5.5184C0.521267 5.51086 0.161488 5.69179 0.0390101 6.05366C-0.0911227 6.4306 0.107904 6.77738 0.582506 7.10909L4.6702 10.004L3.07034 14.6931C2.87897 15.2435 2.94786 15.6279 3.26171 15.8616Z"
        fill="white" />
</svg>
